
-: Cover :- 

 
http://desibbrg.net/imghost/show.php?img=430718_66093.jpg.html


-: Screens :-
 
http://desibbrg.net/imghost/show.php?img=430717_L.Innocente.The.Ingenuous.XXX.DVDRIP.XviD.Marc.Dorcel.DADA.DBBians.Com.avithumbs2013.04.0708.19.20.jpg.html

-: Info :-  



Prepare yourself for an exceptional moment in the heart of impressive worldly orgies! Sarah, innocent young woman, meets Alicia. Beautiful, rich and powerful, it will take Sarah under her wing and train in a luxurious world where the pleasures of the flesh know no bounds. Just arrived in the beautiful mansion Alicia, Sarah penetrated by the atmosphere of the place and made ??a terribly erotic dream where she joins three beautiful and hot lesbians.
In the evening, Alicia draws its new "protected" in a very special evening: young bourgeois feverishly frolic there and eventually be sodomized by a man sex incredibly tense. At the height of the excitement, Sarah can not turn back. Obediently obeying the finger and the eye to his new mistress, let it bring enjoyment to new heights by offering her holes to virile welcoming strangers in a spectacular orgy worldly.
No more taboo can now hold Sarah's quest for ever more intense orgasms


Duration: 02:20:15
Director: Max Candy, Michael Ninn
╨Æ ╤Çast: Aleska Diamond, Anna Polina, Carla Cox, Michelle, Samantha Jolie, Tarra White, Anissa Kate, Jenny, Leila, Mia, Nicoletta, Regina


File: AVI
Video: MPEG-4 Visual (XviD), 1280╤à720, 864 Kbps, 25.000 fps 
Audio: MPEG Audio (MPEG-2 Audio layer 3), 96.0 Kbps (CBR) 22.05 KHz, 2 channels, 1 stream
Size: 975.66 Mb

General

Format                           : AVI
Format/Info                      : Audio Video Interleave
File size                        : 976 MiB
Duration                         : 4h 40mn
Overall bit rate                 : 486 Kbps
Movie name                       : Marc Dorcel - L'innocente.mp4
Director                         : created.with.SUPER(C)+Recorder.2013.55
Writing application              : SUPER(C)   

Video
ID                               : 0
Format                           : MPEG-4 Visual
Format profile                   : Simple@L3
Format settings, BVOP            : No
Format settings, QPel            : No
Format settings, GMC             : No warppoints
Format settings, Matrix          : Default (H.263)
Codec ID                         : XVID
Codec ID/Hint                    : XviD
Duration                         : 2h 20mn
Bit rate                         : 864 Kbps
Width                            : 1 280 pixels
Height                           : 720 pixels
Display aspect ratio             : 4:3
Frame rate                       : 25.000 fps
Color space                      : YUV
Chroma subsampling               : 4:2:0
Bit depth                        : 8 bits
Scan type                        : Progressive
Bits/(Pixel*Frame)               : 0.038
Stream size                      : 867 MiB (89%)
Writing library                  : SUPER(C).

Audio
ID                               : 1
Format                           : MPEG Audio
Format version                   : Version 2
Format profile                   : Layer 3
Mode                             : Joint stereo
Mode extension                   : MS Stereo
Codec ID                         : 55
Codec ID/Hint                    : MP3
Duration                         : 4h 40mn
Bit rate mode                    : Constant
Bit rate                         : 96.0 Kbps
Channel(s)                       : 2 channels
Sampling rate                    : 22.05 KHz
Stream size                      : 96.3 MiB (10%)
Alignment                        : Aligned on interleaves
Interleave, duration             : 26 ms (0.65 video frame)
